<svg width="36" height="36" viewBox="0 0 36 36" fill="none" xmlns="http://www.w3.org/2000/svg">
<path d="M10.4715 6.75C11.5087 6.75 12.4673 6.82875 13.347 7.065C14.2245 7.2225 14.9468 7.551 15.588 7.94475C16.2315 8.34075 16.7062 8.90325 17.0302 9.6255C17.3452 10.3455 17.5163 11.2253 17.5163 12.1838C17.5163 13.2998 17.2778 14.2583 16.7153 14.9783C16.2315 15.6983 15.4418 16.3417 14.472 16.8165C15.8355 17.2125 16.8728 17.9325 17.505 18.891C18.1373 19.8495 18.5422 21.0442 18.5422 22.4077C18.5422 23.5237 18.306 24.4823 17.901 25.2833C17.497 26.0895 16.8907 26.7771 16.1415 27.279C15.4215 27.7627 14.5418 28.1565 13.5833 28.395C12.6443 28.643 11.6787 28.7759 10.7077 28.791L0 28.8068V6.75H10.4715ZM9.83025 15.7005C10.7077 15.7005 11.4278 15.4642 11.9835 15.0592C12.537 14.6542 12.7823 13.941 12.7823 13.0635C12.7823 12.5775 12.7035 12.105 12.546 11.7877C12.3755 11.4662 12.1282 11.1918 11.826 10.989C11.4996 10.811 11.1507 10.6778 10.7887 10.593C10.3927 10.5143 9.98775 10.5142 9.513 10.5142H4.8825V15.7118C4.8825 15.7005 9.83025 15.7005 9.83025 15.7005ZM10.0665 25.1347C10.5502 25.1347 11.025 25.056 11.43 24.9772C11.826 24.8985 12.231 24.7388 12.546 24.4913C12.861 24.2438 13.1085 24.0075 13.347 23.6138C13.5045 23.2178 13.662 22.734 13.662 22.1715C13.662 21.0555 13.347 20.2545 12.7035 19.692C12.0622 19.2082 11.1825 18.972 10.1452 18.972H4.8825V25.1235H10.0687L10.0665 25.1347ZM25.497 25.056C26.1405 25.6972 27.0967 26.0145 28.3725 26.0145C29.25 26.0145 30.051 25.776 30.6945 25.371C31.3357 24.8873 31.7295 24.4125 31.887 23.931H35.802C35.1585 25.8457 34.2 27.2093 32.9265 28.089C31.653 28.8878 30.1298 29.3625 28.2915 29.3625C27.116 29.3677 25.9502 29.1501 24.8557 28.7213C23.8707 28.3551 22.9918 27.7506 22.2975 26.9618C21.5569 26.2262 21.007 25.321 20.6955 24.3247C20.3017 23.2875 20.133 22.1715 20.133 20.8868C20.133 19.692 20.2905 18.5648 20.6955 17.5275C21.1005 16.4925 21.654 15.6105 22.3762 14.8118C23.0962 14.0918 23.976 13.4483 24.9345 13.0523C26.0033 12.6267 27.1434 12.4091 28.2937 12.411C29.6572 12.411 30.852 12.6472 31.8893 13.2097C32.9243 13.7722 33.7275 14.4067 34.3687 15.3652C35.01 16.2427 35.4848 17.28 35.811 18.3983C35.9685 19.5143 36.0472 20.6392 35.9685 21.915H24.381C24.381 23.22 24.8535 24.4125 25.497 25.056ZM30.537 16.659C29.9745 16.0965 29.0925 15.7793 28.0553 15.7793C27.3353 15.7793 26.7818 15.9368 26.298 16.1753C25.8143 16.4115 25.497 16.7377 25.182 17.0527C24.8879 17.3616 24.6921 17.7508 24.6195 18.171C24.5385 18.5648 24.462 18.891 24.462 19.206H31.653C31.4955 18.0225 31.0927 17.2215 30.537 16.659ZM23.5012 8.271H32.4518V10.4242H23.5012V8.271Z" fill="white"/>
</svg>
