<svg width="36" height="36" viewBox="0 0 36 36" fill="none" xmlns="http://www.w3.org/2000/svg">
<path d="M5.04167 3.34082H30.9583C31.3879 3.34082 31.7999 3.50741 32.1037 3.80395C32.4075 4.10049 32.5781 4.50268 32.5781 4.92205V30.2216C32.5781 30.641 32.4075 31.0432 32.1037 31.3397C31.7999 31.6363 31.3879 31.8029 30.9583 31.8029H5.04167C4.61207 31.8029 4.20007 31.6363 3.8963 31.3397C3.59253 31.0432 3.42188 30.641 3.42188 30.2216V4.92205C3.42188 4.50268 3.59253 4.10049 3.8963 3.80395C4.20007 3.50741 4.61207 3.34082 5.04167 3.34082ZM6.66146 6.50327V28.6404H29.3385V6.50327H6.66146ZM10.7109 12.8282C10.0665 12.8282 9.44854 12.5783 8.99289 12.1335C8.53723 11.6887 8.28125 11.0854 8.28125 10.4563C8.28125 9.82728 8.53723 9.224 8.99289 8.77919C9.44854 8.33438 10.0665 8.0845 10.7109 8.0845C11.3553 8.0845 11.9733 8.33438 12.429 8.77919C12.8846 9.224 13.1406 9.82728 13.1406 10.4563C13.1406 11.0854 12.8846 11.6887 12.429 12.1335C11.9733 12.5783 11.3553 12.8282 10.7109 12.8282ZM9.09115 14.4094H12.3307V26.2686H9.09115V14.4094ZM18 15.0893C18.946 14.1959 20.0507 13.6188 21.2396 13.6188C24.5942 13.6188 26.9089 16.2737 26.9089 19.5484V26.2686H23.6693V19.5484C23.6693 18.8145 23.3706 18.1107 22.839 17.5917C22.3074 17.0728 21.5864 16.7812 20.8346 16.7812C20.0828 16.7812 19.3618 17.0728 18.8302 17.5917C18.2986 18.1107 18 18.8145 18 19.5484V26.2686H14.7604V14.4094H18V15.0893Z" fill="white"/>
</svg>
