<svg width="261" height="67" viewBox="0 0 261 67" fill="none" xmlns="http://www.w3.org/2000/svg">
<path d="M32.0016 14.0348C31.2594 11.8145 30.0558 9.76629 28.4654 8.01726C26.8206 6.26895 24.8067 4.88699 22.5615 3.96602C19.9591 2.92537 17.1641 2.41745 14.3509 2.47398H0.835938V6.70307H14.3509C16.3657 6.66957 18.3656 7.04304 20.2243 7.79987C21.8809 8.46962 23.3682 9.481 24.5837 10.7642C25.8091 12.1288 26.7203 13.7325 27.2562 15.4676C27.8766 17.3852 28.1818 19.386 28.1606 21.3962C28.1745 23.3735 27.8694 25.3407 27.2562 27.2261C26.6944 28.9324 25.7971 30.5163 24.6141 31.8899C23.429 33.2312 21.9451 34.2923 20.2751 34.9926C18.3915 35.7628 16.3635 36.143 14.3204 36.1091H5.77449H0.835938V40.437H14.3509C17.0284 40.4621 19.6856 39.9823 22.1754 39.0241C24.4164 38.1647 26.4455 36.8548 28.1301 35.1803C29.8101 33.4678 31.1014 31.4311 31.9204 29.2023C32.8255 26.6885 33.2692 24.0396 33.2312 21.3765C33.2355 18.8805 32.8202 16.4005 32.0016 14.0348V14.0348Z" fill="white"/>
<path d="M46.8281 40.3875H51.7667V20.4673C50.1916 21.7815 48.5251 23.0166 46.8281 24.1924V40.3875Z" fill="white"/>
<path d="M42.6016 0.774414V22.5128C44.2986 21.3369 45.9651 20.1117 47.5401 18.7975V0.774414H42.6016Z" fill="white"/>
<path d="M91.4795 25.8624C90.8599 24.683 89.9572 23.6662 88.8477 22.8981C87.5661 22.0185 86.1591 21.3261 84.6713 20.8428C82.8804 20.2477 81.0549 19.756 79.2043 19.3705C77.4463 18.9852 75.9323 18.6097 74.6519 18.254C73.5343 17.9607 72.4564 17.5394 71.4408 16.9991C70.66 16.5936 70.0041 15.9934 69.5406 15.26C69.0908 14.4555 68.8764 13.5464 68.9207 12.6317C68.8809 11.7658 69.0515 10.903 69.4187 10.1133C69.7859 9.32355 70.3395 8.62913 71.0344 8.08636C72.4367 6.99286 74.6587 6.44281 77.7004 6.43622C78.5973 6.45267 79.4912 6.54191 80.3729 6.70301V2.33558C79.5294 2.24324 78.6813 2.19705 77.8325 2.19724C75.9408 2.18465 74.0565 2.4274 72.2334 2.91856C70.6195 3.35228 69.1078 4.08726 67.7826 5.08252C66.5428 6.02556 65.5417 7.23228 64.8561 8.61006C64.1419 10.1134 63.7941 11.7568 63.8399 13.4123C63.8004 14.7334 64.0643 16.0465 64.6122 17.256C65.1272 18.3342 65.9093 19.2713 66.8884 19.9832C68.0338 20.8073 69.3016 21.457 70.6482 21.91C72.3562 22.5006 74.0965 22.9988 75.8611 23.402C77.6597 23.8269 79.2653 24.2518 80.6777 24.6569C81.8894 25.002 83.0582 25.4759 84.1632 26.0699C85.0301 26.5251 85.7723 27.1757 86.3276 27.9671C86.8489 28.7734 87.1107 29.7127 87.0796 30.6646C87.1273 31.5205 86.9385 32.3733 86.5329 33.1343C86.1273 33.8954 85.5196 34.537 84.7729 34.9925C83.4324 35.7659 81.9269 36.2291 80.3729 36.3462V40.684C81.5336 40.5927 82.6853 40.4144 83.8177 40.1504C85.4238 39.796 86.945 39.1453 88.2989 38.2335C89.5461 37.3699 90.5662 36.2324 91.2763 34.9135C92.0393 33.4519 92.4165 31.8288 92.3738 30.1903C92.4287 28.6995 92.1224 27.2169 91.4795 25.8624V25.8624Z" fill="white"/>
<path d="M124.675 25.8626C125.891 25.5515 127.038 25.0256 128.059 24.3113C129.057 23.601 129.929 22.7365 130.64 21.7521C131.363 20.7284 131.918 19.6017 132.286 18.4123C132.665 17.1712 132.857 15.8831 132.855 14.5883C132.855 13.0787 132.558 11.5829 131.981 10.1814C131.4 8.7567 130.572 7.43977 129.532 6.28825C128.498 5.1323 127.237 4.18839 125.823 3.51167C124.338 2.82971 122.71 2.49151 121.067 2.52357H104.352V40.3878H109.27V6.70326H120.742C121.686 6.70283 122.618 6.91238 123.466 7.31588C124.329 7.7313 125.096 8.31287 125.721 9.02531C126.367 9.77743 126.885 10.6246 127.256 11.5351C127.66 12.5115 127.864 13.5555 127.855 14.6081C127.852 15.6156 127.684 16.6162 127.357 17.5724C127.047 18.4866 126.584 19.3446 125.986 20.1119C125.415 20.8275 124.695 21.4169 123.872 21.841C123.016 22.2754 122.063 22.4961 121.098 22.4833H119.726V26.831L128.567 40.3779H134.176L124.675 25.8626Z" fill="white"/>
<path d="M173.667 12.7208V21.6138C173.668 23.4155 173.484 25.2129 173.118 26.9792C172.793 28.6457 172.148 30.2379 171.218 31.6727C170.318 33.0519 169.087 34.198 167.631 35.0125C165.882 35.848 163.959 36.2824 162.011 36.2824C160.063 36.2824 158.14 35.848 156.392 35.0125C154.951 34.2106 153.728 33.086 152.825 31.732C151.899 30.3 151.248 28.7164 150.904 27.0582C150.515 25.2583 150.321 23.4235 150.325 21.5841V2.47412H145.387V21.6434C145.384 24.0255 145.667 26.3999 146.23 28.7182C146.749 30.9052 147.702 32.9728 149.035 34.805C150.376 36.5991 152.139 38.0558 154.177 39.0538C156.622 40.1911 159.312 40.7401 162.021 40.6546C164.661 40.7235 167.282 40.2029 169.683 39.1329C171.715 38.1794 173.476 36.7583 174.815 34.9927C176.173 33.1722 177.154 31.1113 177.701 28.9257C178.313 26.5444 178.617 24.098 178.605 21.6434V12.7504L173.667 12.7208Z" fill="white"/>
<path d="M220.073 10.1813C219.492 8.75657 218.664 7.43965 217.624 6.28812C216.584 5.13007 215.316 4.18603 213.895 3.51154C212.409 2.83061 210.781 2.49245 209.139 2.52344H192.891V40.3877H197.829V26.7716V22.5128V6.70313H208.865H209.352C210.127 6.75234 210.886 6.94343 211.588 7.26635C212.446 7.66364 213.211 8.22876 213.834 8.92637C215.234 10.5031 215.99 12.525 215.957 14.608C215.96 15.6418 215.792 16.6693 215.46 17.6514C215.152 18.5687 214.685 19.4277 214.078 20.1908C213.516 20.9096 212.793 21.4943 211.964 21.9002C211.153 22.2962 210.26 22.5058 209.352 22.5128V26.7913H209.474C211.097 26.8175 212.703 26.4793 214.169 25.8032C215.552 25.1418 216.783 24.214 217.787 23.0761C218.806 21.9299 219.599 20.6099 220.124 19.1829C220.672 17.7269 220.95 16.1881 220.947 14.6376C220.948 13.1118 220.652 11.5995 220.073 10.1813V10.1813Z" fill="white"/>
<path d="M242.306 19.1138V40.3878H247.254V19.1138H242.306ZM228.852 2.47412V6.70322H260.708V2.47412H228.852Z" fill="white"/>
<path d="M81.986 66.3417C79.4381 66.3417 77.3176 65.4951 75.6244 63.802C73.9477 62.1088 73.1094 59.9883 73.1094 57.4404C73.1094 54.8924 73.9477 52.7719 75.6244 51.0788C77.3176 49.3856 79.4381 48.5391 81.986 48.5391C83.9093 48.5391 85.6024 49.0651 87.0654 50.1171C88.5449 51.1527 89.5805 52.55 90.1723 54.3089H87.9778C87.4517 53.1418 86.6545 52.213 85.586 51.5226C84.5339 50.8322 83.3257 50.487 81.9614 50.487C80.0216 50.487 78.4025 51.1527 77.1039 52.4842C75.8217 53.7993 75.1806 55.4513 75.1806 57.4404C75.1806 59.4294 75.8217 61.0896 77.1039 62.4211C78.4025 63.7362 80.0216 64.3937 81.9614 64.3937C83.3257 64.3937 84.5339 64.0485 85.586 63.3581C86.6545 62.6677 87.4517 61.739 87.9778 60.5718H90.1723C89.5805 62.3307 88.5449 63.7362 87.0654 64.7882C85.6024 65.8239 83.9093 66.3417 81.986 66.3417Z" fill="white"/>
<path d="M104.224 66.0704L98.8245 59.3883H95.4711V66.0704H93.4245V48.8103H100.255C102.112 48.8103 103.55 49.3034 104.57 50.2897C105.589 51.2596 106.098 52.5418 106.098 54.1363C106.098 55.5828 105.671 56.7664 104.816 57.6869C103.978 58.6075 102.786 59.1582 101.241 59.339L106.764 66.0704H104.224ZM95.4711 50.7582V57.5636H100.057C101.372 57.5636 102.359 57.2513 103.016 56.6267C103.69 55.9856 104.027 55.1554 104.027 54.1363C104.027 53.1335 103.69 52.3199 103.016 51.6952C102.342 51.0705 101.356 50.7582 100.057 50.7582H95.4711Z" fill="white"/>
<path d="M120.722 50.7582H111.821V56.2322H120.131V58.1801H111.821V64.1225H120.722V66.0704H109.774V48.8103H120.722V50.7582Z" fill="white"/>
<path d="M136.926 66.0704L134.88 60.8924H126.866L124.82 66.0704H122.65L129.554 48.8103H132.192L139.096 66.0704H136.926ZM127.655 58.9445H134.115L130.885 50.7582L127.655 58.9445Z" fill="white"/>
<path d="M151.421 48.8103V50.7582H145.848V66.0704H143.777V50.7582H138.229V48.8103H151.421Z" fill="white"/>
<path d="M154.418 66.0704V48.8103H156.464V66.0704H154.418Z" fill="white"/>
<path d="M172.338 48.8103H174.508L168.295 66.0704H165.656L159.467 48.8103H161.637L166.963 63.802L172.338 48.8103Z" fill="white"/>
<path d="M188.434 50.7582H179.532V56.2322H187.842V58.1801H179.532V64.1225H188.434V66.0704H177.486V48.8103H188.434V50.7582Z" fill="white"/>
</svg>
