<svg width="36" height="36" viewBox="0 0 36 36" fill="none" xmlns="http://www.w3.org/2000/svg">
<path d="M35.3115 9.47969C35.1838 9.1712 34.9674 8.90753 34.6898 8.72205C34.4122 8.53656 34.0858 8.43759 33.7519 8.43766H29.7891C29.1231 7.41244 28.2138 6.56781 27.1424 5.97897C26.071 5.39013 24.8705 5.07535 23.648 5.06266C22.6942 5.04985 21.7475 5.22801 20.8635 5.58665C19.9796 5.94529 19.1764 6.47716 18.5011 7.15094C17.8068 7.83196 17.2556 8.64498 16.8801 9.54216C16.5045 10.4393 16.3122 11.4026 16.3144 12.3752V12.4848C11.1352 10.8578 6.97974 6.73328 6.93474 6.68687C6.70832 6.45869 6.42142 6.29993 6.10783 6.22927C5.79423 6.15861 5.46697 6.17899 5.16457 6.28802C4.86216 6.39704 4.59718 6.59018 4.40082 6.84469C4.20446 7.09921 4.08488 7.40451 4.05615 7.72469C3.1688 17.5923 7.52255 22.8827 9.97084 25.0384C7.93318 27.1169 5.06443 28.2208 5.0363 28.232C4.79778 28.3208 4.58243 28.4624 4.40638 28.6462C4.23032 28.83 4.09812 29.0512 4.01967 29.2934C3.94122 29.5355 3.91855 29.7922 3.95336 30.0443C3.98817 30.2964 4.07956 30.5374 4.22068 30.7492C4.50193 31.1556 6.11068 33.1877 11.2519 33.1877C21.4121 33.1877 29.9129 25.4167 30.8832 15.3803L34.9444 11.3191C35.1807 11.0832 35.3417 10.7825 35.407 10.4551C35.4724 10.1276 35.4391 9.7882 35.3115 9.47969ZM28.0594 13.4327C27.7685 13.7223 27.5939 14.1085 27.5686 14.5183C27.0216 23.095 19.8554 29.8127 11.2519 29.8127C10.6646 29.8161 10.0777 29.779 9.49552 29.7016C10.9707 28.765 12.6188 27.4319 13.7832 25.6867C13.9105 25.4957 13.9976 25.2807 14.039 25.0548C14.0804 24.829 14.0752 24.5971 14.0239 24.3733C13.9726 24.1495 13.8761 23.9385 13.7404 23.7533C13.6047 23.5681 13.4326 23.4125 13.2347 23.2961C13.2179 23.2862 11.5008 22.2428 9.9399 19.862C8.37896 17.4813 7.51271 14.6589 7.34396 11.4555C9.75709 13.2752 13.5019 15.58 17.7207 16.2902C17.9627 16.3311 18.2108 16.3187 18.4476 16.2538C18.6844 16.189 18.9042 16.0733 19.0916 15.9148C19.2791 15.7562 19.4297 15.5587 19.5329 15.336C19.6362 15.1132 19.6896 14.8707 19.6894 14.6252V12.3752C19.6882 11.8496 19.7922 11.3291 19.9954 10.8444C20.1985 10.3597 20.4966 9.92051 20.8721 9.55281C21.2307 9.19408 21.6574 8.91064 22.1271 8.71913C22.5968 8.52763 23.1 8.43193 23.6072 8.43766C24.3741 8.44792 25.1223 8.67548 25.765 9.0939C26.4077 9.51233 26.9185 10.1045 27.2382 10.8016C27.3697 11.1023 27.5862 11.3581 27.8609 11.5377C28.1357 11.7173 28.4568 11.8128 28.7851 11.8127H29.6738L28.0594 13.4327Z" fill="white"/>
</svg>
